/* XPM */
static char *_b2306b647b6468aa0ca8f04225b2d0cTVoS8zuYildaSq1X[] = {
/* columns rows colors chars-per-pixel */
"64 64 256 2 ",
"   c black",
".  c blue",
"X  c green",
"o  c red",
"O  c cyan",
"+  c yellow",
"@  c magenta",
"#  c white",
"$  c #7B7B7B",
"%  c #7B7B7B",
"&  c #7B7B7B",
"*  c #7B7B7B",
"=  c #7B7B7B",
"-  c #7B7B7B",
";  c #7B7B7B",
":  c #7B7B7B",
">  c #7B7B7B",
",  c #7B7B7B",
"<  c #7B7B7B",
"1  c #7B7B7B",
"2  c #7B7B7B",
"3  c #7B7B7B",
"4  c #7B7B7B",
"5  c #7B7B7B",
"6  c #7B7B7B",
"7  c #7B7B7B",
"8  c #7B7B7B",
"9  c #7B7B7B",
"0  c #7B7B7B",
"q  c #7B7B7B",
"w  c #7B7B7B",
"e  c #7B7B7B",
"r  c #7B7B7B",
"t  c #7B7B7B",
"y  c #7B7B7B",
"u  c #7B7B7B",
"i  c #7B7B7B",
"p  c #7B7B7B",
"a  c #7B7B7B",
"s  c #7B7B7B",
"d  c #7B7B7B",
"f  c #7B7B7B",
"g  c #7B7B7B",
"h  c #7B7B7B",
"j  c #7B7B7B",
"k  c #7B7B7B",
"l  c #7B7B7B",
"z  c #7B7B7B",
"x  c #7B7B7B",
"c  c #7B7B7B",
"v  c #7B7B7B",
"b  c #7B7B7B",
"n  c #7B7B7B",
"m  c #7B7B7B",
"M  c #7B7B7B",
"N  c #7B7B7B",
"B  c #7B7B7B",
"V  c #7B7B7B",
"C  c #7B7B7B",
"Z  c #7B7B7B",
"A  c #7B7B7B",
"S  c #7B7B7B",
"D  c #7B7B7B",
"F  c #7B7B7B",
"G  c #7B7B7B",
"H  c #7B7B7B",
"J  c #7B7B7B",
"K  c #7B7B7B",
"L  c #7B7B7B",
"P  c #7B7B7B",
"I  c #7B7B7B",
"U  c #7B7B7B",
"Y  c #7B7B7B",
"T  c #7B7B7B",
"R  c #7B7B7B",
"E  c #7B7B7B",
"W  c #7B7B7B",
"Q  c #7B7B7B",
"!  c #7B7B7B",
"~  c #7B7B7B",
"^  c #7B7B7B",
"/  c #7B7B7B",
"(  c #7B7B7B",
")  c #7B7B7B",
"_  c #7B7B7B",
"`  c #7B7B7B",
"'  c #7B7B7B",
"]  c #7B7B7B",
"[  c #7B7B7B",
"{  c #7B7B7B",
"}  c #7B7B7B",
"|  c #7B7B7B",
" . c #7B7B7B",
".. c #7B7B7B",
"X. c #7B7B7B",
"o. c #7B7B7B",
"O. c #7B7B7B",
"+. c #7B7B7B",
"@. c #7B7B7B",
"#. c #7B7B7B",
"$. c #7B7B7B",
"%. c #7B7B7B",
"&. c #7B7B7B",
"*. c #7B7B7B",
"=. c #7B7B7B",
"-. c #7B7B7B",
";. c #7B7B7B",
":. c #7B7B7B",
">. c #7B7B7B",
",. c #7B7B7B",
"<. c #7B7B7B",
"1. c #7B7B7B",
"2. c #7B7B7B",
"3. c #7B7B7B",
"4. c #7B7B7B",
"5. c #7B7B7B",
"6. c #7B7B7B",
"7. c #7B7B7B",
"8. c #7B7B7B",
"9. c #7B7B7B",
"0. c #7B7B7B",
"q. c #7B7B7B",
"w. c #7B7B7B",
"e. c #7B7B7B",
"r. c #7B7B7B",
"t. c #7B7B7B",
"y. c #7B7B7B",
"u. c #7B7B7B",
"i. c #7B7B7B",
"p. c #7B7B7B",
"a. c #7B7B7B",
"s. c #7B7B7B",
"d. c #7B7B7B",
"f. c #7B7B7B",
"g. c #7B7B7B",
"h. c #7B7B7B",
"j. c #7B7B7B",
"k. c #7B7B7B",
"l. c #7B7B7B",
"z. c #7B7B7B",
"x. c #7B7B7B",
"c. c #7B7B7B",
"v. c #7B7B7B",
"b. c #7B7B7B",
"n. c #7B7B7B",
"m. c #7B7B7B",
"M. c #7B7B7B",
"N. c #7B7B7B",
"B. c #7B7B7B",
"V. c #7B7B7B",
"C. c #7B7B7B",
"Z. c #7B7B7B",
"A. c #7B7B7B",
"S. c #7B7B7B",
"D. c #7B7B7B",
"F. c #7B7B7B",
"G. c #7B7B7B",
"H. c #7B7B7B",
"J. c #7B7B7B",
"K. c #7B7B7B",
"L. c #7B7B7B",
"P. c #7B7B7B",
"I. c #7B7B7B",
"U. c #7B7B7B",
"Y. c #7B7B7B",
"T. c #7B7B7B",
"R. c #7B7B7B",
"E. c #7B7B7B",
"W. c #7B7B7B",
"Q. c #7B7B7B",
"!. c #7B7B7B",
"~. c #7B7B7B",
"^. c #7B7B7B",
"/. c #7B7B7B",
"(. c #7B7B7B",
"). c #7B7B7B",
"_. c #7B7B7B",
"`. c #7B7B7B",
"'. c #7B7B7B",
"]. c #7B7B7B",
"[. c #7B7B7B",
"{. c #7B7B7B",
"}. c #7B7B7B",
"|. c #7B7B7B",
" X c #7B7B7B",
".X c #7B7B7B",
"XX c #7B7B7B",
"oX c #7B7B7B",
"OX c #7B7B7B",
"+X c #7B7B7B",
"@X c #7B7B7B",
"#X c #7B7B7B",
"$X c #7B7B7B",
"%X c #7B7B7B",
"&X c #7B7B7B",
"*X c #7B7B7B",
"=X c #7B7B7B",
"-X c #7B7B7B",
";X c #7B7B7B",
":X c #7B7B7B",
">X c #7B7B7B",
",X c #7B7B7B",
"<X c #7B7B7B",
"1X c #625239",
"2X c #BDA48B",
"3X c #5A6241",
"4X c #394129",
"5X c #9C7B6A",
"6X c #5A4A31",
"7X c #6A5241",
"8X c #9C836A",
"9X c #523929",
"0X c #FFFFD5",
"qX c #6A7352",
"wX c #FFE6D5",
"eX c #413120",
"rX c #524131",
"tX c #A48B73",
"yX c #525239",
"uX c #413118",
"iX c gray16",
"pX c #8B8B8B",
"aX c #B4B4B4",
"sX c #6A4120",
"dX c #838383",
"fX c #A4A4A4",
"gX c #C5C5C5",
"hX c #414A31",
"jX c #B49C83",
"kX c gray45",
"lX c #626262",
"zX c #D5D5D5",
"xX c gray74",
"cX c #7B7B62",
"vX c gray58",
"bX c #392918",
"nX c gray32",
"mX c #6A6A6A",
"MX c #ACACAC",
"NX c gray61",
"BX c #CDCDCD",
"VX c gray87",
"CX c #414141",
"ZX c gray29",
"AX c #313131",
"SX c #5A5A5A",
"DX c #E6E6E6",
"FX c #626A4A",
"GX c #181818",
"HX c #8B735A",
"JX c #393939",
"KX c #313920",
"LX c #9C8362",
"PX c #7B624A",
"IX c #EEEEEE",
"UX c #FFCDB4",
/* pixels */
"dX$ dX$ $ $ $ $ lXnXlXSXJXJXmXmX$ dXdX$ mXnXnXmXNXdXlXlXdXdX$ $ PXdXvXdXfXgXfXvXfXNXNXNXMXaXgXVXVXIXzXxXIXIXIXgXgXdXnXnX$ vXfXNX",
"$ $ mX$ lXSXlXnXnX$ $ lXBX$ nXnXnXnXnXnXnXnXmXNXfXNXdXlX$ dX$ dXMXzXgXfX$ lXnX$ NXvXdXdXNXMXaXVXIXzXNX# IXUXgXNXPXnX$ fXfXNXvXdX",
"lXSXSX$ vXNXNXvX$ lXCXSX2XxXmXrXJXJXJXnXlXPX$ dXdXdXlXvXNXvXdXxXgXaXaXNXmXCXJX$ vXfXxXzXgXaXNXzXgXNXaX2XNXdXPXsXnXMXaXvXvXvXdXdX",
"CXmXNXxXgXgXgXgXaXmXAXCX1XHXvXmXeXnXaXBXfXCX$ aXaXxXgXgXxXNXNXaXNXMXNXNXnXJXAX$ aXzXVXVXzXgXaXNXNXdXlXlXsXeXAXnX$ dXNXvXNXvXvXdX",
"SXaXxXaXMXMXMXNXNXdXnXCXCXlX$ $ SX$ gXzXzX$ dXgXzXaXgXaXNXdXdXdXpXdXdX$ nXCXmXaXzXzXVXVXzXaXMXdXsXnXnXJXJXJXJXCXmX$ dXfXvXdX$ $ ",
"FXNXNXNXNXdXHXPXPXmXdXnXmXMXMXvXvX$ aXzXfXMXdXdXNX2XaXxXfXvXvXpXlXSXmXlXnX$ vXaXaXgXgXgXaXNXNX$ JXAXJXiXiXAXJXCXlX$ mXlXlXmXmXmX",
"1XHXpXdX$ mXSXCXnXmXsXJXvXgXgXzXvXSXPX8XLXzXxXvXfXMXMXNXaXaXaXMXNXvXJXnXnXdXvXNXNXaXaXgXMXNXdXSXAXAXSXmXSXJXJXAXCXvXzXIXVXvXmXSX",
"JXCXPX7XSXnXJXJXlXnXSXdXaXaXaXgXxX$ rXnXlXNXaXfXfXNXNXfXfXfXaXaXaXMX$ JXiXCXlX$ $ vXNXvXdX$ lXJXAXSX$ vXMXvXSXnXNXzXVXzXzXfXmXnX",
"nXCXJXCXJXJXJXnXnXmXvXgXMXMXaXMXNX$ JXlXdX$ vXvXvXNXNXNXNXNXNXfXaXaXNXlXiXiXCXCXlXdXvXvXfXxXaXvXnX$ dXvXgXgXBXBXVXgXgXgXaXdX$ SX",
"vXpXmXCXJXJXJXnXJXtXgXaXaXxXxXxXfX$ vXMX$ lX$ dXvXvXvXNXNXvXvXvXMXaXfX$ JXiXlXlXvXaXxXgXDX# zXgXvXlXvXvXNXMXgXzXVXgXMXMXNXdX$ $ ",
"fXfXfXvXlXJXlXvXNXxXzXzXgXzXVXgXfXvXaXNXlXSXlX$ vXvXvXvXvXvXvXNXfXfXMXvXJXlX$ NXaXBXzXDXDXVXVXgXfXmXlXlX$ MXxXzXgXaXMXMXvX$ mXfX",
"MXfXNXvXdX$ MXVXVXzXzXzXgXgXaXMXdXvXaX$ SXCXCXnX$ $ mXmXMXzXzXVXzXxXMXvXlXvXxXzXzXzXzXzXgXaXaXfXvXaXzXfXvXgXgXaXaXfXMXMXvXmXnXvX",
"vXNXfXfXNXvXvXMXgXgXgXaXNXdXHXlXlXMXvX$ SXSXnXCXeXSXlXlXNXMXgXaXgXgXaXNXmXvXgXgXxXxXaXaXMXvXdXHX7X8XNX$ SXxXaXfXfXfXfXMXvXnXnXdX",
"1X7XHX5XdXNXdXNXNXdXdXPX1XnXrXAXdXMXdX$ mX$ nXmXvXaXgXzXaXNXHXHXdX8XNXNX$ $ NXaXaXMXvX$ $ mX7XSXmXlXsXSXSXMXMXfXNXMXfXNX$ CXJXnX",
"nXJXrX1XPXcXcXPXmXlXSX$ NXvXvXmXvXMXdXSXlX$ vXxXgXzXzXzXzXxXfXdXlXPXmX$ mXNXMXdX8XHXPX7X7XnXJXSXvXaXNX$ nXNXNXfXfXfXvXdXnXAXCXnX",
"BXMX$ nXeXnXnXJXrXJX$ IXIXVXxXvXxXxXdXnXCXvXaXzXzXVXDXDXVXzXzXaXmXSXJXeXdXxXxX$ mXmX$ vXNXMXvX$ $ NXxXBXNX$ dXvXvXvXdXSXAXAXvXMX",
"aXgXzXmXCXvXxXBX$ mXvX2XNX2XdX$ aXNXmXCXdXxXaXaXgXzXVXVXDXVXzXzXaXmX$ NXxXgXaX$ nX$ xXzXxXxXzXNXmXvXaXgXzXvXlX$ PXlXCXnXnXAXMXxX",
"xXgXMXmX$ MXMXaXxXvX1XHXvXdX$ $ NXdXnX$ aXzXgXaXaXgXzXVXVXVXVXzXzXaXvX$ PXPXsXsXJXvXxXVXgXgXgXaXSX$ aXzXgXvXSXnXnXNXBXzX$ CXMXxX",
"xXNXPXrXlXdXvXfXfXfX$ dXdX$ PXfXgXfXlXdXzXVXVXgXfXaXgXBXzXzXzXzXzXaX$ CXnX$ mXiXJX$ MXaXaXxXfX$ iXSXmXvX$ lXnXmXxXzXNXHXlXmX$ MX",
"dXlXnXmXdXmXvXfXfXNXvXlX$ mXmXaXaXdXmXfXzXVXIXVXfXvXxXxXxXzXzXgXNXPXlXdXMXzXaX$ iXnX$ dXvX$ mXnXuXiXsXlXmXSXCX$ uXPXCXSX$ MXfX$ ",
"mXvXBXxXMXlXdXfXfXfXNX$ $ dXdXNXNX$ vXgXzXVXzXzXfXdXaXaXaXfXNXdXlXnXlXdXNXgXgXMXdXvXfXvXdXSXnXSXiXCXvXBXVXNXdXvXvXmXvXMXaXfX$ HX",
"aXxXaXNXdXmX$ vXfXfXNXdXSX$ rXSX7XmXaXVXVXgXgXaXvX$ vXvX$ lXlXnXJXJXdX$ dXpXpXdXaXBXVXVXgXaX$ $ SXMXVXVXgXNXmXNXfXvXdXdXdXvXvX$ ",
"NXdXlX1XnXSX$ vXfXNXvXdXCXSXJXJXJXvXzXVXgXaXaXNXdX$ lXlXlXnXCXJXnXCXdXvXvXvX$ vXfXaXVXVXVXBXMX$ vXaXNX8XHXlXlXmXHXPX7XmXMXaXgXdX",
"lXlXCXSXvXvXNX$ mXvXvX$ CXnXmX$ $ xXzXgXaXfXfXvX$ mXJXJXCXJXnXSXlXCX$ $ $ HX$ dXvXfXBXVXzXxXMXlXdXdXdXdXnXAXnXAXAXnX$ xXaXaXNXnX",
"mXvXMXxXvXvXvXvX$ SXmXSXnXmXdXdXMXgXaXaXfXfXfXvXmXnXiXiXCXnXSXlXSXCXlXlXmXCXdXdXpXvXaXVXgXMXvXnX1XlXvXaXzXvXCX$ NXxXxXaXNXdXnXnX",
"vXvXvXNXdXdXdXdX$ SXSXCXSX$ mXvXxXaXfXfXfXfXMXvXSXnXiXCXnXSXlXSXCX$ $ lXJXJXdXcXdXpXMXgXaXNXdXCXmXvXaXzXzXxXvXfXNXdXHX$ lXlXmXmX",
"mX$ mXlXSXSXSXSXCXCXCXCXSXmXmXvXMXMXfXNXMXfXNX$ SXnXiXCXnXmXSXCX$ vXNXvXmXJXmXcXcX$ NXaXMXvXmXvXaXaXaXaXaXaX$ 7XlXmXdXdXfXBXMX$ ",
"SXCXnXnXCXnXnXCXAXSXvXvXNXvXSXdXNXNXfXfXfXvXdXSXmXCXJXCXSXmXSXJXmX$ vXfXfXmXCXmXmX$ vXfXvXdX$ aXaXxXxXgXxXNXrXAXmXxXzXMXgXzXgXMX",
"mXnXmXmX$ $ $ mXmXvXxXVXVXxXvXSXSXlX$ $ mXSXSX$ CXJXnXCXlXmX$ vXdX$ $ vXvXvXSXCXSXmX$ $ lXSXNXxXgXgXgXaXaXvXmXvXxXgXMXdXfXaXzXaX",
"mXdXvXvXfXMXaXMXaXfXNXLX2XxXMXmXCXiXiXiXCXlXmXmX$ mXnXiXSXNXxXaXdXmXmX$ $ mXSXCXnXlXlXSXCXmXvXaXaXMXMXNXfX$ fXmXaXgXMXvXvXxXgXNX",
"nXvXfXaXaXMXfXaXaXNXNXSXPXNXdXmXCXiXiXJX$ NXNXMXxX$ nXiXdXxXxXaXdXmXSX1XJXAXCXJXCXCXJXJXJXSX$ pXvXfXvXvX$ vXNXSXvXgXaXvX$ LXPXlX",
"CX7XNXxXfXNXaXNXNXNXxXBXzXBXaXvXvXSXnX$ xXxXgXVXgX$ nXJXdXNXNXfXvXlXnXJXAXSXmXdXfXMXxXxXfXfXNXaXfX$ mXSXdXvXdXCXSX8XdX$ lXnXnXnX",
"$ lXHXaXNXaXMXNXvXxXxXgXgXaXxXxXMXNXdXNXxXxXzXVX2X$ $ xXaXMX$ dXvXlXnXiXFXvXfXaXgXzXaXaXMXNXaXMXvXSXCXmXcXmXcXmXnXnXSXmXSXlXSXmX",
"aXvXnXPXNXxXfXNXaXgXNXfXNXfXvXfXfXxXMXvXdXMXzXaXdXdXMXMXfXaXvXdXvXmXJXnXNXxXgXgXgXaXaXMXNXaXaXNX$ CXmXcXmXlXmXxXBX$ nXnXnX$ vXaX",
"gXaXlXCXcXgXNXvXvXMXfXxXxXxXxXaX$ dX$ lX7XHX8XPXlXvXvXNXtXjXvX$ NXxXBXNXlXdXvXvXvXdX$ $ $ $ mXPXmXSXlXmXnXnXfXgXgXgX$ mXMXxXzXzX",
"zXgXvXnXCXPX8XmXvXaXxXgXgXzXzXBXBXNXCXnXSXlXlXCX7X$ vXfXvXvXcXdXvXaXgXzXvXlX$ PXlXCXnXnXSXSXnXnXCXSXSXnXJXJXcXdX8XHXdXxXVXzXVXVX",
"gXgXaXvXnXCXnXnX$ vXxXgXzXDXIXIXzXBXxXvXdX$ mXnXlXdXdXvXvXHX1XvXvXVXzXgXvXSXiXnXNXBXzX$ CXiXJXJXJXnXJXJXJXJXvXaXlXlXxXzXgXgXzXzX",
"gXgXxXaX$ nXnXCXmX$ NXgXgXzXDXIXIXVXzXzXxXNX$ nX$ vXcXdXHXSXiXlXdXaXNXvX$ nXmXvXzXNXHXlXmX$ mXdXSXAXJXJXAXnXxXzXNXMXgXgXaXgXzXzX",
"gXgXgXgXMXvXnX1XHXmX$ MXaXgXzXVXVXVXVXzXgXxXmXCX$ $ dXFXdXMX$ uXsXsXJXiXSXCX$ $ PXCXSX$ MXfX$ mXmXCXCXCXiXFXVXVXaXaXxXaXaXgXzXgX",
"gXgXgXgXgXMX$ SXmXnXPX$ NXfXxXgXzXVXzXBXgXfXnXCXmXcXmXmXHXjXNXmXCXvXBXVXBXvXvXvXnXlXvXaXfXvX$ mXlXnX$ $ JXSXvXaXMXxXxXaXaXgXgXgX",
"gXgXgXgXgXgXdX$ vXCXnXSXlX$ dXNXMXaXxXMXNX$ JXAXmX$ SXnXCX7XNX$ MXVXVXgXNXdXNXfXvXnXnXdXvXvX$ nXSXdXaXaXxXaXnXNXgXgXgXaXxXgXgXgX",
"gXgXgXaXxXaXSXnXdXmXAXJXCXCXnXmX$ vXvXvX$ nXAXAXSXSXCXAXnXnXcXvXaXNX8XHXlXlXmXHXPX7XmXMXaXgXnXCX$ NXfXNXNXaXvXvXaXaXxXgXgXgXgXgX",
"gXaXgXaXvX$ CXdXfXvXdXCXAXJXCXnXnXmX$ $ mXCXCXnXnXnXAXAXCXlXlXdXdXdXdXnXAXnX1XnXnX$ xXaXaXNXnX$ dXvXfXfXfXMXvXvXaXaXxXgXgXgXgXgX",
"aXvX$ lXlXCXdXfXMXMXaXvXAXCXnXlX$ NXdXlX$ $ dXvXNXdXCXAXnXmXSX1XlXvXVXzXvXCX$ NXxXxXaXNXdXNXaXxXvXvXfXfXfXfXdXNXaXaXgXgXgXgXxXfX",
"$ lXlXvXNXlXdXvXfXvXxXaXCXJXCXaXzXgXgXNXaXaXgXaXNXmXCXJXSXSXnXmXvXdXzXzXxXvXlXNXdXHX$ lXaXVXVXfX$ vXvXvXvXdXcXfXaXaXaXxXaXfXvXvX",
"lXvXaXzXVXMXmXvXvXvXfXaXSXCXMXzXaXaXfXnXdXdXdXdXmXCXnXnXnXnXmXaXaXvXaXaXaX$ 7XlXmXdXdXfXvXaXIXvX$ NXMXfXvXnXmXfXaXaXaXfXpXvX$ lX",
"MXaXzXVXVXVX$ $ vXvXvXmXnX$ xXaXMXfXfXCXSXlXmXCXJXCXSXnX$ dXdX$ $ fXvXNXNX$ JXSXcX3XdXgXfXvXdX$ fXMXgXgXgXfXvXNXfXfXfXpXdXlXhXGX",
"fXfXzXzXzXzX$ $ nXmXmXnX$ NXNXMXMXNXdXCXCXnXCXJXJXCXSXdXdXvXzXzXaXdXaXzXzXzXaXdXCXJXgXgXvXmXmXfXvXMXgXgXzXgXgXfXvXvX$ lXCXJXiXnX",
"dXFXlX$ $ dXdXCXCXCXnX$ NXMXaXfXvXvXdXPXlXCXCXnXnXmX$ mX$ aXaXfXmXaXzXaXxXxXxXxXgXgXxXaXdXSXSXdXdXvXNXaXfXaXMXaXfX$ SXJXAXJXJX$ ",
"fXdXAXnXnXCXlXnXnXlXlXdXaXxXgXfXdXNXNX2XaXHXnXlXlX$ lXdXxXaXdXmXSXxXfXaXaXfXaXfXfXxXdXdXSXvXfXdXSXdXvXNXMXMXfXaXxX$ iXiXJXJXdXvX",
"aXdXdXNXNXvXNXNXNXaXSXlX$ vXNXNXNX2X2XaXNX$ PXfX$ nXdXaXgXxXNXNXvXvXvXfXaXfXMXMXfXxXdXnXnXvXvXfXdXmX$ vXvXNXfXvXdX$ CXCXAXJXfXaX",
"NXnXMXaXgXxXxXaXaXfXdXlXSXnXnXdXaX2X2XNXcX$ cXNXNXaXaXxXaXaXxXgXNXmXcXvXMXfXNXvXvXfXxXCXnXdXvXvXvXdXSXcXvXvXvXvX$ mXCXlXCXlXMXgX",
"lXCXdXvXfXfXfXvXvXvX$ 2XgXMX$ jXjXjX8XcXnXCXlXNXMXvXvXvXvXvXvXvXpXnXhXvXNXvX$ aXxXfXvXCXnXdXvXdXdXdXSXCX$ vXvX$ dXCXlXSXnXNXxXMX",
"JXAXlXcXcXdXdXdXcXqX2XIXVXMXcX8XvX5XcXNXNXdXdXdX5XdX$ $ $ $ $ cXlXCX4XnX$ $ MXgXxXgXfXmXnXmXvXdX$ lXmX$ nX3X$ vX$ CXCXnXdXaXgXpX",
"JXJXCXnX3XFX$ mXlXcXwXVXaXdXdXNXNXMXzXIXVXaXdX$ cX5XcXcXcXqXlXSXCXAXAXJXSXNXxXaXxXgXgXfX$ CXnXnXCX$ NXcXSXJXJXmXvXaXxXCXdXfXvXdX",
"HXNXdXAXJXJXhXCXCXFXcXfXaXvXvXvXgXVXVXgXNXdXdX$ PXSX7XyXnXCXhXhXnXlXdXmXlXaXaXgXaXxXgXxXzXvXCXJXlXdXcXlXSXJXnXvXMXxXdXJXFXdX$ mX",
"vXxX$ AXAXAXCXSXCXCXyXvXvXdXlXdXaXvX$ dXNXMXgXaXvXlXSXHXmXCXCXCXdXMXNXlX$ aXxXxXxXxXxXaXxXgXaXfXdXlXSXSXJXJX$ aXaXvXlXJXCXSXSXCX",
"vXNXNXdXCXAXnXSXCXAXlXNXfXxXmXmX$ vXMXxXxXgXxXaXMXmXdXaXfXdXdXvXCXcXcXlXdXxXxXxXxXaXxXaXaXaXgXgXaXNX$ CXJXlXfXfXgXgXgXdXnXmXmXAX",
"gXVXIXVXvXnX$ $ CX1XfXNXNXpX$ vXaXxXaXaXxXaXfXvXfXmX$ dXmXmXvX$ CXlXSXlXvXaXaXxXxXxXaXaXfXMXaXaXMXxXvXnXmXvXMXfXxXxXaXdXnXmXAXvX",
"gXgXgXgXgXMXNXdX$ vXfXvX$ vXfXfXMXNXvXMXvXvXvXvXvXSXlXmXCXCXJXAXnXmXmXmXvXMXaXxXxXfXaXaXNXMXMXvXvXdXmX$ fXaXaXfXMXvX$ SXnXnXCXvX",
"xXaXgXxXxXgXgXvX$ dX$ vXdXdXvXNXNXNXvXdXvXdXdXdX$ dXfXgXaXnXAXlXdXaXfX$ vXaXaXMXfXMXfXfXvXvX$ $ $ mXnXCXdXvXvXvX$ CXCXdXzXgXvXvX",
"aXxXaXxXxXxXaXvX$ lXvXdXvXdXvXvXNXvXdXdXdXdXdX$ lXlXNXzXVXgXlXvXzXzXvXdXdXvXvXvXvXvXdXmXnXCXnX$ NXgX2XdXnXlXdXdXSXJXmXgXzXzXmXvX",
"vXaXxXaXaXaXfXvXSXdXdXdXvXdXvXvXvXpXvXdXdX$ $ mXnXlXvXaXzXaX$ fXzXgXNXdXNXaXaXgXdXAXCXJXiXnXNXgXgXVX# 0XaXlXdXmXCXCXlXvXvX$ mX$ ",
"$ vXaXfXaXvXvXSXnXdXlX$ dXvXvXvXvXvXdXdXdX$ mXnXnXmXdXvXMXvXlXvXMXcXpXMXzXzXgXgXaXCXCXCXlXaXzXzXzXIXVXIXxXdXnXnXJXAXlX$ mXmXmXmX"
};
