/* XPM */
static char *c6c16638934948b5b87bc9631f8bb6aaHLSmaFwxMYySp9Jx[] = {
/* columns rows colors chars-per-pixel */
"64 64 58 1 ",
"  c black",
". c #000001",
"X c #00001C",
"o c gray11",
"O c #00002C",
"+ c #000034",
"@ c #202020",
"# c #2C2C2C",
"$ c gray22",
"% c #543C1C",
"& c #5C4020",
"* c #6C4824",
"= c #000040",
"- c #00004C",
"; c #000058",
": c #000064",
"> c #000070",
", c #00007C",
"< c #484848",
"1 c gray33",
"2 c #646464",
"3 c gray44",
"4 c #7C7C7C",
"5 c #80502C",
"6 c #885830",
"7 c #905C34",
"8 c #9C6038",
"9 c #A0643C",
"0 c #CC6000",
"q c #A86840",
"w c #B47044",
"e c #BC7848",
"r c #C87C4C",
"t c #9C9C00",
"y c #B4AC00",
"u c #D08050",
"i c #DC8854",
"p c #E88C58",
"a c #F0945C",
"s c #FC9C60",
"d c #FCA470",
"f c #000088",
"g c #000098",
"h c #0000A4",
"j c #0000B0",
"k c #0000BC",
"l c #0000C8",
"z c #0000D4",
"x c #0000E0",
"c c #4040FC",
"v c gray55",
"b c gray66",
"n c #B4B4B4",
"m c #FCB080",
"M c #FCB890",
"N c #FCBC9C",
"B c #FCC4A4",
"V c #FCD4BC",
/* pixels */
"                                                                ",
"                                                                ",
"                                                                ",
"                                                                ",
"                                                                ",
"                                                                ",
"                                                                ",
"                                                                ",
"                                                                ",
"                                                                ",
"                          hxx,=.                                ",
"                        hxx,==...                               ",
"                       xfff===...                               ",
"                       ffff==.....                              ",
"                       fcurdqwrt0.                              ",
"                       >MBBu6NMy*6                              ",
"                        mNdddmmu96                              ",
"                        dNVVVVa8u6                              ",
"                        dmmmmmwwu6                              ",
"                        dddidpii5                               ",
"                         aiuur555.                              ",
"                       ##waaw7q5..                              ",
"                       ##5raa7....----                          ",
"                     oob@&5ra.11.:ffff-                         ",
"                    :oov..&5.:..:ggggg>-                        ",
"                   j:oog.:..:g::ghhhhf>>-                       ",
"                  jg:oogggg>gggggggggffg=                       ",
"                 jjg:oo>gg>ggg>>>>gggfggf=                      ",
"                jjfggooo=g>gg,gggg>f;ggg>=+                     ",
"                jjfgg:ooo.>:gg,>>>>;f2+gg>=                     ",
"               jjjf+g,....@@::::=<122.$g>>++                    ",
"               j>ff++-:=$$22123444321.$>>=++                    ",
"               >jj,-+$14444422211<<$$$><>>++                    ",
"               jxj23444221<<<<<$@@****.>$+@X                    ",
"               z:234v1<<<$$$@@@@@.6ie**X#+X                     ",
"               f+34n.1$$@$$<@XXX@@*ei8*X+X                      ",
"               -+,w...$X#1<1$XXXXXX*88*XX                       ",
"                -9ssp7&X#1<1$XXXXXXXXXXX                        ",
"                 isi9%XX+11<#XXOOOOOXX                          ",
"                 iss9%XXX##+XXO+===+OXX                         ",
"                  99*%XXXXXXXO+=====+OX                         ",
"                     lhf::=XXO++++++++X                         ",
"                      >>-=OXXX+==;;;;+X                         ",
"                      kh,-=OOXO=;>>>>=+                         ",
"                     hkh,--OOX=;:>ff>;=                         ",
"                     hkhh,-=OX=;:fff>;;                         ",
"                     kkhh,-=OX=;;:ffff>;                        ",
"                     kkhh,--OX=;;>ffff>;                        ",
"                     kkhh,:-OXO;;>ffff>;                        ",
"                    hkkhh,:-OXO;=,f::f>;                        ",
"                    hkhhf,:-OXO;>f::::f>=                       ",
"                    kxxhh:-OO  ;;>::::>>=                       ",
"                    khh,>--=OX ;.-::;;;==                       ",
"                    kh,,--==OX .-;;-;;==                        ",
"                    ::::-==OO  .========                        ",
"                     .+++XX..   .++OX.@.                        ",
"                     .+++XX..   .+=OX.@.                        ",
"                      .XXX...   .X+OX.@                         ",
"                       ......    XXX..                          ",
"                       OOO...   .OO...@                         ",
"                      O===O...  .O=++..                         ",
"                      =====...  O=====..                        ",
"                     O====O...  O====O..                        ",
"                     O==OO...    .OOOO.@                        "
};
